<svg width="252" height="168" viewBox="0 0 252 168" fill="none" xmlns="http://www.w3.org/2000/svg">
<g id="8961448_3973477 1">
<g id="Background_Complete">
<g id="Group">
<path id="Vector" d="M224.095 50.4915L220.879 66.0631L218.811 64.0454L215.288 66.556L212.598 63.2159L206.561 67.604L201.406 58.9786L195.653 62.348L193.372 59.202L186.067 63.318L183.869 58.613L188.989 33.8125L216.441 39.4805L224.095 50.4915Z" fill="#EBEBEB"/>
<path id="Vector_2" d="M216.441 39.4805L224.095 50.4902L214.574 48.5246L216.441 39.4805Z" fill="#DBDBDB"/>
<path id="Vector_3" d="M220.195 69.1757L215.479 92.022L178.504 84.3898L183.184 61.7256L185.382 66.4303L192.688 62.3143L194.969 65.4606L200.722 62.0912L205.877 70.7163L211.914 66.3281L214.604 69.6683L218.127 67.158L220.195 69.1757Z" fill="#EBEBEB"/>
</g>
<g id="Group_2">
<path id="Vector_4" d="M167.272 66.4987L129.59 68.8305L126.596 20.458L154.575 18.7266L164.849 27.3433L167.272 66.4987Z" fill="#EBEBEB"/>
<path id="Vector_5" d="M154.575 18.7266L164.849 27.3433L155.146 27.9437L154.575 18.7266Z" fill="#DBDBDB"/>
<g id="Group_3">
<path id="Vector_6" d="M144.129 51.2726L143.983 50.1816C143.603 47.92 144.223 45.3909 146.188 42.7446C147.959 40.4047 148.921 38.7018 148.815 36.8058C148.694 34.6564 147.265 33.299 144.608 33.4055C143.091 33.4905 141.433 34.0906 140.424 34.9504L139.264 32.3518C140.598 31.2625 142.963 30.4537 145.196 30.3284C150.043 30.0569 152.401 32.9267 152.581 36.1291C152.741 38.9952 151.256 41.1496 149.367 43.6652C147.636 45.9604 147.065 47.8528 147.312 49.9948L147.416 51.0881L144.129 51.2726ZM143.532 57.2245C143.445 55.6651 144.437 54.5103 145.912 54.4276C147.387 54.345 148.46 55.3842 148.547 56.9436C148.63 58.4187 147.724 59.6108 146.165 59.6981C144.69 59.7808 143.615 58.6995 143.532 57.2245Z" fill="#DBDBDB"/>
</g>
</g>
<g id="Group_4">
<path id="Vector_7" d="M49.8896 43.0458L46.0975 41.3262L45.5717 42.4874C45.4171 42.8288 45.0821 43.0468 44.7075 43.0633C44.5005 43.0724 44.2935 43.0929 44.0876 43.1241C43.718 43.1806 43.3477 43.0317 43.13 42.728L42.3877 41.6917L39.0019 44.1177L39.7441 45.1535C39.9618 45.4576 39.9837 45.8558 39.8116 46.1878C39.7155 46.3726 39.6298 46.5621 39.5546 46.7553C39.4185 47.1047 39.1043 47.3517 38.7314 47.3883L37.4626 47.5126L37.8716 51.6562L39.1447 51.5295C39.518 51.4922 39.8711 51.678 40.0737 51.9938C40.1288 52.0795 40.1863 52.1642 40.2457 52.2475C40.3055 52.3308 40.367 52.4125 40.4305 52.4921C40.663 52.7841 40.7255 53.1762 40.5717 53.5163L40.0421 54.6859L43.8342 56.4055L44.3624 55.2419C44.5173 54.9006 44.853 54.6828 45.2276 54.6667C45.4339 54.658 45.6399 54.6378 45.8452 54.6069C46.2144 54.5511 46.584 54.6996 46.8018 55.0034L47.5443 56.0399L50.9302 53.614L50.1876 52.5775C49.9702 52.2737 49.9481 51.8759 50.1198 51.5443C50.2152 51.3601 50.3002 51.1713 50.3748 50.9788C50.5105 50.6293 50.8244 50.3817 51.1977 50.3447L52.4691 50.2187L52.0602 46.0752L50.7881 46.2009C50.4161 46.2375 50.064 46.0523 49.8621 45.7375C49.8066 45.6515 49.7488 45.5662 49.6887 45.4818C49.6289 45.3985 49.5674 45.3168 49.5039 45.2372C49.27 44.9439 49.2075 44.5498 49.3624 44.208L49.8896 43.0458ZM47.7385 46.8792C48.8356 48.4104 48.4838 50.539 46.953 51.636C45.4218 52.733 43.2906 52.3833 42.1935 50.8521C41.0965 49.321 41.4489 47.1877 42.9801 46.0906C44.5109 44.9939 46.6415 45.3484 47.7385 46.8792Z" fill="#EBEBEB"/>
<path id="Vector_8" d="M221.217 98.0153L218.69 99.4732L219.137 100.246C219.268 100.474 219.256 100.753 219.112 100.973C219.033 101.095 218.96 101.221 218.894 101.351C218.775 101.585 218.54 101.735 218.278 101.735H217.385V104.653H218.278C218.54 104.653 218.775 104.803 218.894 105.036C218.96 105.166 219.033 105.292 219.112 105.414C219.256 105.634 219.269 105.914 219.137 106.141L218.69 106.914L221.217 108.372L221.664 107.595C221.795 107.368 222.045 107.242 222.308 107.256C222.379 107.259 222.45 107.261 222.522 107.261C222.594 107.261 222.666 107.259 222.737 107.256C222.998 107.242 223.247 107.367 223.378 107.593L223.828 108.372L226.354 106.914L225.907 106.138C225.775 105.911 225.788 105.631 225.932 105.411C226.011 105.29 226.084 105.165 226.15 105.035C226.269 104.802 226.504 104.652 226.766 104.652H227.659V101.735H226.766C226.504 101.735 226.269 101.585 226.15 101.351C226.084 101.222 226.011 101.096 225.932 100.975C225.788 100.755 225.776 100.476 225.907 100.248L226.354 99.4725L223.828 98.0146L223.38 98.7905C223.249 99.0173 223 99.1423 222.738 99.1288C222.667 99.1251 222.595 99.1234 222.522 99.1234C222.45 99.1234 222.378 99.1251 222.307 99.1288C222.045 99.1423 221.795 99.0169 221.663 98.7895L221.217 98.0153ZM222.523 100.804C223.842 100.804 224.911 101.873 224.911 103.193C224.911 104.512 223.842 105.583 222.523 105.583C221.203 105.583 220.132 104.512 220.132 103.193C220.132 101.873 221.203 100.804 222.523 100.804Z" fill="#EBEBEB"/>
<path id="Vector_9" d="M57.5577 30.6307L55.2407 32.4024L55.7833 33.1113C55.9429 33.32 55.9664 33.5989 55.8529 33.8354C55.7897 33.9661 55.7339 34.1005 55.6852 34.2383C55.5978 34.4849 55.3831 34.6643 55.1234 34.6983L54.238 34.8135L54.6147 37.7071L55.5001 37.5919C55.7598 37.558 56.0131 37.6766 56.1606 37.8926C56.2429 38.0132 56.3313 38.1288 56.4257 38.239C56.5964 38.4386 56.6448 38.7145 56.544 38.9567L56.2009 39.7813L58.8943 40.9008L59.2374 40.0729C59.3382 39.8303 59.5697 39.6738 59.8318 39.6529C59.903 39.6472 59.9742 39.6398 60.0455 39.6307C60.1167 39.6213 60.1876 39.6106 60.2575 39.5975C60.5149 39.5504 60.7776 39.6418 60.9365 39.8495L61.4832 40.5638L63.8006 38.7921L63.2573 38.0808C63.0977 37.8721 63.0745 37.5929 63.1887 37.3564C63.2516 37.226 63.3073 37.0923 63.3561 36.9552C63.4438 36.7089 63.6581 36.5298 63.9175 36.4959L64.8032 36.3806L64.4266 33.487L63.5409 33.6022C63.2815 33.6362 63.0285 33.5179 62.8806 33.3018C62.7986 33.1819 62.7103 33.067 62.6162 32.9571C62.4452 32.7575 62.3961 32.4817 62.4969 32.2391L62.8403 31.4125L60.1466 30.293L59.8029 31.1199C59.7024 31.3618 59.4712 31.5177 59.2102 31.5382C59.1389 31.5439 59.067 31.5513 58.9948 31.5607C58.9236 31.5701 58.8527 31.5809 58.7824 31.5936C58.5237 31.641 58.26 31.5489 58.1 31.3399L57.5577 30.6307ZM59.2122 33.2279C60.5206 33.0576 61.7184 33.9796 61.8888 35.2879C62.0591 36.5963 61.1375 37.7965 59.8291 37.9669C58.5207 38.1372 57.3202 37.2132 57.1498 35.9048C56.9795 34.5965 57.9038 33.3983 59.2122 33.2279Z" fill="#EBEBEB"/>
</g>
<g id="Group_5">
<g id="Group_6">
<path id="Vector_10" d="M40.2593 106.439C40.3917 103.188 40.3386 99.9301 40.1256 96.6833C39.6861 89.9865 38.5837 83.3418 37.0696 76.8076C36.2175 73.1294 35.1679 69.5137 34.0745 65.9017C34.0416 65.7925 33.8676 65.8234 33.8978 65.937C37.2793 78.67 40.0537 91.8103 39.8628 105.046C39.8094 108.75 39.3806 112.389 39.0289 116.07C39.0194 116.168 39.1814 116.207 39.2039 116.106C39.9014 112.956 40.1282 109.656 40.2593 106.439Z" fill="#EBEBEB"/>
<path id="Vector_11" d="M33.8974 65.9375C33.8974 65.9375 28.7747 78.94 29.9215 81.9963C31.0686 85.0525 33.433 85.7044 33.433 85.7044C33.433 85.7044 30.2988 90.1792 32.4889 94.3762C34.6793 98.5732 39.5455 98.3749 39.8688 103.134C39.8688 103.134 40.1399 83.2358 33.8974 65.9375Z" fill="#EBEBEB"/>
<path id="Vector_12" d="M39.312 94.9178C39.3183 94.896 39.3167 94.8728 39.3066 94.8496C38.5872 86.0084 37.0188 77.1948 34.3378 68.693C34.3301 68.6678 34.2888 68.6759 34.2955 68.7021C35.3105 72.5056 36.2137 76.3296 36.9855 80.1745C36.3202 79.4894 35.45 79.0956 34.5401 78.811C34.5229 78.8056 34.5145 78.8301 34.5307 78.8372C35.4782 79.2468 36.3857 79.7215 37.0554 80.5242C37.2049 81.2779 37.3514 82.0319 37.4905 82.7869C36.3457 81.5074 34.7581 80.8727 33.1695 80.2692C33.147 80.2608 33.1353 80.2951 33.1571 80.3042C34.8116 80.9778 36.4597 81.8457 37.5805 83.2714C37.9713 85.4292 38.3134 87.5947 38.6094 89.7666C37.7724 88.8923 36.7395 88.3046 35.5548 88.016C35.5192 88.0073 35.4994 88.06 35.5353 88.0705C36.7526 88.4209 37.7996 89.1023 38.6332 90.0549C38.6393 90.0616 38.6457 90.065 38.6524 90.0693C38.7549 90.8334 38.8516 91.5985 38.9424 92.3645C38.2979 91.8148 37.5856 91.3965 36.8014 91.073C36.7805 91.0646 36.7694 91.0968 36.7896 91.1055C37.5863 91.4446 38.3029 91.9335 38.934 92.5248C38.943 92.5332 38.9521 92.5322 38.9612 92.5356C39.0465 93.2637 39.1315 93.9921 39.2051 94.7219C38.0308 93.3067 36.5786 92.2826 34.8603 91.6196C34.8267 91.6065 34.8096 91.6579 34.8418 91.672C36.5124 92.3985 37.9851 93.5493 39.1238 94.9669C39.155 95.0058 39.1957 95.0122 39.2317 95.0008C39.3425 96.1197 39.4417 97.2402 39.5236 98.3631C39.5246 98.3786 39.5498 98.3799 39.5492 98.3645C39.485 97.215 39.4047 96.0663 39.312 94.9178Z" fill="white"/>
<path id="Vector_13" d="M35.1959 77.5183C34.3076 76.9078 33.1786 76.647 32.1182 76.5587C32.0926 76.5567 32.0906 76.5943 32.1155 76.5976C33.2186 76.7616 34.1453 77.1608 35.1586 77.5915C35.2027 77.6107 35.2343 77.5448 35.1959 77.5183Z" fill="white"/>
<path id="Vector_14" d="M35.8179 91.2837C35.115 90.8617 34.313 90.6235 33.5076 90.4935C33.4794 90.4891 33.477 90.5325 33.5046 90.5372C34.3224 90.6853 35.0468 90.9763 35.79 91.3385C35.8216 91.3543 35.8478 91.3019 35.8179 91.2837Z" fill="white"/>
</g>
<g id="Group_7">
<path id="Vector_15" d="M53.7262 82.208C51.5899 83.7099 49.5396 85.442 47.7971 87.3908C45.9397 89.468 44.585 91.826 43.6388 94.4428C41.7004 99.8037 40.638 105.611 40.5412 111.309C40.4868 114.503 40.771 117.672 41.4544 120.794C41.4793 120.907 41.649 120.875 41.6319 120.76C40.7966 115.268 40.8271 109.663 41.7246 104.181C42.6052 98.8017 43.9872 92.9496 47.4063 88.5782C49.2681 86.198 51.5896 84.3252 53.8844 82.3898C54.0044 82.288 53.8502 82.1207 53.7262 82.208Z" fill="#EBEBEB"/>
<path id="Vector_16" d="M41.2949 107.435C41.2949 107.435 43.0542 104.473 45.6169 101.911C48.1796 99.3486 50.338 97.5278 50.671 95.8333C51.0043 94.1389 48.104 92.891 48.104 92.891C48.104 92.891 51.6504 93.5277 52.6208 92.0392C53.5912 90.5511 54.0596 81.9307 54.0596 81.9307C54.0596 81.9307 47.608 86.5369 44.6018 92.9938C41.596 99.4507 41.2949 107.435 41.2949 107.435Z" fill="#EBEBEB"/>
<path id="Vector_17" d="M51.8272 84.141C49.1127 86.8072 46.3806 89.6484 44.782 93.1512C44.2339 94.3521 43.7676 95.5976 43.357 96.8664C43.356 96.8684 43.356 96.8704 43.355 96.8721C43.2726 97.1268 43.189 97.3811 43.1114 97.6375C43.1036 97.6503 43.0996 97.6644 43.0983 97.6795C42.308 100.296 41.7492 103.001 41.2654 105.643C41.2624 105.661 41.2882 105.67 41.2916 105.652C41.5695 104.307 41.8762 102.949 42.2186 101.595C42.2307 101.595 42.2438 101.593 42.2573 101.587C42.8059 101.356 43.358 101.212 43.9504 101.157C43.989 101.154 43.986 101.087 43.9467 101.089C43.3751 101.116 42.8153 101.216 42.272 101.394C42.5845 100.173 42.9242 98.9553 43.3062 97.7554C44.5518 97.4503 45.8518 97.2857 47.1326 97.2551C47.1457 97.2548 47.1481 97.235 47.1343 97.2343C45.843 97.1741 44.6294 97.2854 43.3718 97.5538C43.4383 97.3479 43.5075 97.1432 43.5764 96.9379C44.4174 96.7464 45.2621 96.5851 46.1226 96.5065C46.1381 96.5052 46.1367 96.4786 46.1213 96.479C45.2786 96.5018 44.448 96.5902 43.6281 96.782C43.9793 95.7435 44.3586 94.7193 44.7793 93.7217C45.1274 92.8965 45.5413 92.113 45.9973 91.3566C46.6871 91.2004 47.3557 91.0519 48.0627 90.9884C48.0821 90.9867 48.0801 90.9555 48.061 90.9541C47.4192 90.9124 46.7509 90.9605 46.13 91.145C46.4693 90.597 46.8258 90.06 47.2075 89.5399C48.6544 89.2193 50.121 88.922 51.6011 89.1999C51.6266 89.2046 51.636 89.1615 51.6108 89.1552C50.202 88.7846 48.8035 88.9986 47.4018 89.2758C47.5546 89.0722 47.7112 88.8713 47.8691 88.6713C48.7572 88.3968 49.6405 88.2638 50.5722 88.2466C50.5914 88.2463 50.5944 88.2187 50.5746 88.2167C49.7242 88.1354 48.8761 88.2177 48.0543 88.4405C49.2504 86.9544 50.5716 85.5586 51.8776 84.1783C51.9388 84.1152 51.8917 84.0779 51.8272 84.141Z" fill="white"/>
<path id="Vector_18" d="M51.7551 90.0169C51.3304 89.9716 50.8987 89.9242 50.472 89.9723C50.4202 89.978 50.4246 90.0623 50.4767 90.0637C50.9014 90.0761 51.3261 90.0445 51.7508 90.0674C51.7834 90.0694 51.7874 90.0203 51.7551 90.0169Z" fill="white"/>
<path id="Vector_19" d="M47.1113 98.3792C46.4332 98.3708 45.7562 98.5532 45.1228 98.7784C45.107 98.7841 45.1158 98.8106 45.1322 98.8066C45.7888 98.6503 46.453 98.5868 47.1163 98.4773C47.1707 98.4686 47.168 98.3799 47.1113 98.3792Z" fill="white"/>
<path id="Vector_20" d="M45.7197 95.4899C45.4445 95.4755 45.1468 95.5238 44.8757 95.5662C44.8478 95.5705 44.8495 95.6159 44.8784 95.6166C45.1526 95.6213 45.4543 95.6287 45.7244 95.5769C45.7721 95.5675 45.7701 95.4926 45.7197 95.4899Z" fill="white"/>
</g>
<g id="Group_8">
<path id="Vector_21" d="M22.3819 91.3561C24.4581 92.0778 26.5174 93.0059 28.3782 94.1802C30.3616 95.4318 32.003 97.0271 33.3735 98.9258C36.1811 102.816 38.3833 107.271 39.7787 111.859C40.5609 114.432 41.0635 117.062 41.2319 119.746C41.2379 119.844 41.0931 119.857 41.0807 119.76C40.487 115.122 39.1668 110.593 37.1733 106.364C35.2175 102.214 32.7465 97.7975 28.9689 95.0501C26.9119 93.5542 24.6006 92.5751 22.2959 91.5392C22.1753 91.4851 22.2613 91.3144 22.3819 91.3561Z" fill="#EBEBEB"/>
<path id="Vector_22" d="M38.2734 108.899C38.2734 108.899 36.1647 106.908 33.4989 105.427C30.8327 103.946 28.6652 102.971 28.0039 101.677C27.3427 100.382 29.4014 98.7021 29.4014 98.7021C29.4014 98.7021 26.6784 100.037 25.5491 99.0569C24.4198 98.0768 22.0483 91.209 22.0483 91.209C22.0483 91.209 28.3342 93.4454 32.259 97.976C36.1842 102.507 38.2734 108.899 38.2734 108.899Z" fill="#EBEBEB"/>
<path id="Vector_23" d="M37.9461 107.482C34.8021 101.581 30.6072 96.2428 24.8589 92.7192C24.8562 92.7175 24.8538 92.7215 24.8562 92.7228C26.3695 93.6872 27.7639 94.7993 29.0636 96.0153C27.9 95.9831 26.7156 96.1685 25.6841 96.7286C25.6612 96.7411 25.6777 96.772 25.7012 96.7639C26.851 96.3748 27.9555 96.1195 29.1785 96.1763C29.1953 96.1769 29.206 96.1682 29.2178 96.1615C29.4218 96.355 29.623 96.5516 29.8223 96.7498C29.2175 96.7757 28.6056 96.8614 28.0163 96.9894C28.0005 96.9927 28.0048 97.0173 28.021 97.0142C28.6587 96.8909 29.2813 96.8479 29.9284 96.857C30.9818 97.9154 31.9633 99.0477 32.8933 100.223C32.4733 100.162 32.0332 100.198 31.6306 100.315C31.6007 100.324 31.6084 100.367 31.6397 100.363C32.0977 100.305 32.5331 100.312 32.9877 100.344C33.1598 100.563 33.3338 100.781 33.5025 101.003C32.2099 100.925 30.9435 101.049 29.6875 101.374C29.6691 101.379 29.6741 101.407 29.6932 101.403C30.9889 101.149 32.2952 101.068 33.6117 101.149C33.772 101.361 33.9238 101.58 34.0811 101.795C33.31 101.772 32.562 101.868 31.81 102.055C31.7815 102.062 31.7896 102.107 31.8188 102.101C32.5923 101.925 33.3788 101.88 34.1694 101.917C34.8458 102.849 35.4936 103.802 36.1162 104.766C35.7866 104.698 35.4405 104.735 35.1193 104.826C35.1022 104.831 35.1069 104.855 35.1247 104.853C35.4946 104.809 35.84 104.857 36.2032 104.904C36.763 105.775 37.3043 106.656 37.8228 107.541C37.8671 107.616 37.9877 107.561 37.9461 107.482Z" fill="white"/>
<path id="Vector_24" d="M33.0558 102.588C32.4413 102.535 31.8166 102.631 31.2296 102.811C31.2128 102.816 31.2169 102.842 31.235 102.838C31.8395 102.727 32.4386 102.685 33.0511 102.652C33.0911 102.65 33.0988 102.592 33.0558 102.588Z" fill="white"/>
<path id="Vector_25" d="M27.5726 95.3967C27.2947 95.3651 27.0047 95.4014 26.7302 95.4457C26.6976 95.4511 26.7077 95.4992 26.74 95.4958C27.0168 95.4662 27.29 95.4767 27.5672 95.4683C27.6122 95.4669 27.6196 95.4021 27.5726 95.3967Z" fill="white"/>
</g>
<g id="Group_9">
<g id="Group_10">
<path id="Vector_26" d="M46.3811 128.413H32.1921L34.2152 113.593L34.7323 109.793H43.8409L44.3577 113.593L46.3811 128.413Z" fill="#DBDBDB"/>
<path id="Vector_27" d="M44.3576 113.593H34.2151L34.7322 109.793H43.8408L44.3576 113.593Z" fill="#C7C7C7"/>
</g>
<path id="Vector_28" d="M45.1433 108.475H33.4297V111.693H45.1433V108.475Z" fill="#DBDBDB"/>
</g>
</g>
</g>
<g id="Floor">
<g id="Group_11">
<path id="Vector_29" d="M23.1719 128.413L48.7109 128.331L74.2499 128.302L125.328 128.245L176.406 128.301L201.945 128.331L227.484 128.413L201.945 128.495L176.406 128.525L125.328 128.58L74.2499 128.524L48.7109 128.494L23.1719 128.413Z" fill="#263238"/>
</g>
</g>
<g id="Shadow">
<g id="Group_12">
<path id="Vector_30" d="M126 153.456C179.21 153.456 222.345 148.729 222.345 142.899C222.345 137.068 179.21 132.342 126 132.342C72.7901 132.342 29.6548 137.068 29.6548 142.899C29.6548 148.729 72.7901 153.456 126 153.456Z" fill="#EBEBEB"/>
</g>
</g>
<g id="Character">
<g id="Group_13">
<g id="Group_14">
<g id="Group_15">
<g id="Group_16">
<path id="Vector_31" d="M103.572 141.149C102.789 141.414 80.3393 141.493 79.4812 140.955C79.1546 140.753 78.9527 137.484 78.8203 133.527C78.7917 132.673 78.7672 131.79 78.7477 130.894L76.9272 118.92L91.9347 118.824L93.3513 130.801L93.2938 133.435C93.2938 133.435 101.902 137.249 102.78 137.94C103.654 138.631 104.356 140.884 103.572 141.149Z" fill="#EB9481"/>
<path id="Vector_32" d="M103.572 141.149C102.789 141.414 80.3392 141.493 79.481 140.955C79.0846 140.706 78.8682 135.933 78.7476 130.894L93.3511 130.8L93.2937 133.434C93.2937 133.434 101.902 137.248 102.78 137.939C103.654 138.631 104.355 140.884 103.572 141.149Z" fill="white"/>
<g id="Group_17">
<path id="Vector_33" d="M103.572 141.149C102.789 141.414 80.3394 141.493 79.4812 140.955C79.1546 140.753 78.9527 137.484 78.8203 133.527L93.2939 133.435C93.2939 133.435 101.903 137.249 102.78 137.94C103.654 138.631 104.356 140.884 103.572 141.149Z" fill="#A6A6A6"/>
<g id="Group_18">
<g id="Group_19">
<path id="Vector_34" d="M103.247 140.252C99.4836 140.172 84.2968 140.208 80.5705 140.416C80.5403 140.418 80.5403 140.438 80.5705 140.44C84.2991 140.6 99.4853 140.441 103.248 140.313C103.327 140.311 103.326 140.253 103.247 140.252Z" fill="#263238"/>
<path id="Vector_35" d="M101.334 137.137C100.441 137.103 99.5703 137.53 99.0855 138.064C98.6198 138.576 98.2223 139.295 98.2515 140.076C98.2525 140.098 98.2939 140.099 98.2969 140.076C98.5065 138.602 99.8415 137.304 101.334 137.184C101.364 137.181 101.364 137.138 101.334 137.137Z" fill="#263238"/>
<path id="Vector_36" d="M94.7551 133.803C93.2488 133.788 91.5043 134.325 90.5726 135.56C90.5366 135.608 90.6048 135.659 90.6495 135.636C92.0087 134.929 93.3013 134.401 94.7813 133.988C94.8862 133.959 94.863 133.804 94.7551 133.803Z" fill="#263238"/>
<path id="Vector_37" d="M95.9196 134.252C94.4134 134.236 92.6688 134.774 91.7371 136.01C91.7012 136.058 91.7697 136.108 91.8141 136.085C93.1732 135.378 94.4658 134.851 95.9458 134.438C96.0503 134.409 96.0275 134.253 95.9196 134.252Z" fill="#263238"/>
<path id="Vector_38" d="M97.0838 134.701C95.5775 134.686 93.833 135.224 92.9013 136.459C92.865 136.506 92.9339 136.557 92.9782 136.534C94.3374 135.827 95.63 135.3 97.1104 134.887C97.2149 134.858 97.1917 134.703 97.0838 134.701Z" fill="#263238"/>
<path id="Vector_39" d="M98.2481 135.151C96.7418 135.135 94.9976 135.673 94.0659 136.908C94.0296 136.956 94.0981 137.006 94.1428 136.983C95.5019 136.277 96.7945 135.749 98.2746 135.336C98.3791 135.307 98.3559 135.152 98.2481 135.151Z" fill="#263238"/>
<path id="Vector_40" d="M81.5164 136.838C79.8267 136.849 79.8404 139.475 81.5332 139.464C83.223 139.453 83.2092 136.827 81.5164 136.838Z" fill="#263238"/>
</g>
<path id="Vector_41" d="M96.3691 129.778C95.6044 129.149 94.6461 129.77 94.1784 130.428C93.4207 131.494 92.903 132.986 92.8233 134.285C92.8216 134.317 92.8458 134.33 92.8704 134.328C92.903 134.436 93.0306 134.526 93.1415 134.449C94.2113 133.703 95.4475 133.039 96.2566 131.987C96.729 131.372 97.0922 130.374 96.3691 129.778ZM94.5322 132.986C94.0151 133.366 93.4822 133.717 92.9792 134.116C93.2457 133.364 93.4782 132.605 93.8202 131.881C93.9835 131.536 94.1576 131.184 94.3669 130.863C94.6925 130.364 96.1665 129.1 96.3221 130.738C96.4078 131.642 95.1488 132.534 94.5322 132.986Z" fill="#263238"/>
<path id="Vector_42" d="M89.083 134.856C90.395 135.053 91.7468 134.675 93.0343 134.47C93.1681 134.449 93.1976 134.296 93.1462 134.195C93.1654 134.179 93.1741 134.153 93.1506 134.132C92.193 133.251 90.7851 132.535 89.5003 132.292C88.707 132.142 87.5858 132.359 87.4708 133.343C87.3626 134.273 88.3169 134.741 89.083 134.856ZM88.1704 134.002C87.1466 132.713 89.0853 132.602 89.6656 132.736C90.0386 132.822 90.4082 132.955 90.7653 133.091C91.5139 133.376 92.2078 133.761 92.9208 134.118C92.282 134.18 91.654 134.296 91.0183 134.381C90.2607 134.482 88.7349 134.713 88.1704 134.002Z" fill="#263238"/>
</g>
</g>
</g>
<g id="Group_20">
<path id="Vector_43" d="M54.8748 63.5723C54.8748 63.5723 72.3031 93.2209 72.7698 95.3024C73.4868 98.5011 77.288 130.09 77.288 130.09L95.4222 129.764C95.4222 129.764 92.2968 101.912 89.3366 92.7364C87.2043 86.1269 71.8236 64.207 71.8236 64.207L54.8748 63.5723Z" fill="#37474F"/>
<g id="Group_21">
<path id="Vector_44" d="M93.773 126.984C91.1686 126.965 81.9401 126.861 78.4736 127.185C78.447 127.187 78.448 127.231 78.4742 127.235C79.6674 127.406 91.1707 127.139 93.774 127.056C93.823 127.054 93.822 126.984 93.773 126.984Z" fill="#263238"/>
<path id="Vector_45" d="M57.8497 66.2933C58.9918 68.0845 60.1967 69.8384 61.3643 71.6142C62.5326 73.3906 63.6965 75.1697 64.8453 76.9586C67.1412 80.5339 69.3772 84.1466 71.5723 87.7818C72.6018 89.4867 73.5823 91.2073 74.2892 93.0671C74.9894 94.909 75.4662 96.8256 75.819 98.7576C76.1745 100.704 76.4084 102.669 76.6295 104.633C76.8647 106.725 77.0965 108.817 77.33 110.909C77.8078 115.189 78.2856 119.469 78.7634 123.749C78.8219 124.274 78.8793 124.799 78.9321 125.325C78.9398 125.402 78.802 125.417 78.7923 125.34C78.2587 121.087 77.8155 116.821 77.3307 112.562C77.0894 110.442 76.8482 108.322 76.6069 106.202C76.3825 104.231 76.1691 102.257 75.8634 100.296C75.5627 98.3695 75.1726 96.4509 74.5862 94.5865C73.9737 92.6384 73.1062 90.8095 72.079 89.0381C69.9773 85.4137 67.7537 81.8511 65.529 78.2979C63.2852 74.7141 61.0226 71.1401 58.676 67.6191C58.3863 67.1843 58.094 66.7522 57.7936 66.3242C57.7701 66.2906 57.8276 66.2587 57.8497 66.2933Z" fill="#263238"/>
</g>
</g>
</g>
<g id="Group_22">
<g id="Group_23">
<path id="Vector_46" d="M60.5882 142.899C59.7613 142.848 38.4135 134.198 37.8185 133.379C37.7987 133.351 37.7869 133.297 37.7859 133.221C37.7899 132.487 39.2683 129.917 40.5038 126.546C40.5811 126.33 41.1321 125.33 41.8968 123.981C43.9989 120.275 47.7184 113.927 47.7184 113.927L61.6721 119.471L54.9931 129.469L53.9535 131.888C53.9535 131.888 60.5025 138.656 61.0556 139.625C61.6053 140.593 61.4121 142.945 60.5882 142.899Z" fill="#EB9481"/>
<path id="Vector_47" d="M60.5882 142.899C59.7613 142.848 38.4135 134.198 37.8185 133.379C37.7987 133.351 37.7869 133.297 37.7859 133.221C37.7899 132.487 39.2683 129.917 40.5038 126.546C40.5811 126.33 41.1321 125.33 41.8968 123.98L54.9935 129.469L53.9539 131.888C53.9539 131.888 60.5028 138.656 61.0559 139.625C61.6053 140.593 61.4121 142.945 60.5882 142.899Z" fill="white"/>
<g id="Group_24">
<path id="Vector_48" d="M60.5869 142.897C59.7613 142.849 38.4129 134.199 37.8192 133.378C37.5924 133.068 38.547 130.152 40.5025 126.547L53.9539 131.891C53.9539 131.891 60.5029 138.656 61.0573 139.626C61.607 140.594 61.4124 142.945 60.5869 142.897Z" fill="#A6A6A6"/>
<g id="Group_25">
<g id="Group_26">
<path id="Vector_49" d="M60.6218 141.944C57.1631 140.459 43.0716 134.795 39.5395 133.59C39.511 133.58 39.5032 133.599 39.5308 133.611C42.9271 135.158 57.0639 140.708 60.599 142.001C60.6736 142.029 60.6948 141.975 60.6218 141.944Z" fill="#263238"/>
<path id="Vector_50" d="M60.0166 138.339C59.2018 137.974 58.2345 138.042 57.585 138.355C56.961 138.655 56.3226 139.173 56.0572 139.907C56.0494 139.928 56.0877 139.944 56.0995 139.924C56.8468 138.637 58.5711 137.934 59.9995 138.383C60.028 138.392 60.0448 138.352 60.0166 138.339Z" fill="#263238"/>
<path id="Vector_51" d="M55.1693 132.781C53.7789 132.202 51.9601 132.046 50.6329 132.841C50.5815 132.872 50.6262 132.945 50.6763 132.94C52.2014 132.795 53.5971 132.791 55.1242 132.963C55.2321 132.975 55.2687 132.823 55.1693 132.781Z" fill="#263238"/>
<path id="Vector_52" d="M56.0801 133.635C54.6898 133.055 52.871 132.899 51.5438 133.695C51.4924 133.725 51.5371 133.798 51.5872 133.793C53.1119 133.648 54.508 133.644 56.0351 133.816C56.143 133.829 56.1796 133.676 56.0801 133.635Z" fill="#263238"/>
<path id="Vector_53" d="M56.991 134.488C55.6007 133.909 53.7819 133.753 52.4547 134.548C52.4033 134.579 52.448 134.652 52.498 134.647C54.0228 134.502 55.4189 134.497 56.946 134.67C57.0535 134.682 57.0905 134.53 56.991 134.488Z" fill="#263238"/>
<path id="Vector_54" d="M57.9017 135.341C56.5113 134.761 54.6925 134.605 53.3657 135.401C53.3142 135.432 53.3586 135.504 53.409 135.499C54.9341 135.354 56.3298 135.35 57.857 135.523C57.9645 135.535 58.0014 135.382 57.9017 135.341Z" fill="#263238"/>
<path id="Vector_55" d="M41.7584 130.629C40.1879 130.005 39.2156 132.444 40.7887 133.069C42.3595 133.693 43.3319 131.254 41.7584 130.629Z" fill="#263238"/>
</g>
<path id="Vector_56" d="M58.1751 129.655C57.7024 128.785 56.5811 129.001 55.9007 129.435C54.7986 130.139 53.7587 131.328 53.1979 132.502C53.1842 132.531 53.202 132.551 53.2255 132.559C53.2151 132.671 53.2997 132.803 53.4318 132.773C54.7032 132.483 56.0983 132.331 57.2427 131.66C57.9107 131.268 58.622 130.478 58.1751 129.655ZM55.269 131.94C54.6471 132.097 54.0215 132.223 53.4056 132.404C53.9345 131.808 54.4347 131.191 55.0234 130.648C55.3043 130.389 55.598 130.128 55.9121 129.909C56.401 129.569 58.2416 128.95 57.7712 130.527C57.5118 131.397 56.0103 131.751 55.269 131.94Z" fill="#263238"/>
<path id="Vector_57" d="M49.516 131.629C50.6584 132.304 52.0531 132.46 53.3235 132.754C53.4552 132.784 53.5402 132.653 53.5305 132.541C53.554 132.533 53.5721 132.512 53.5584 132.483C53.0009 131.308 51.9647 130.116 50.865 129.409C50.1856 128.972 49.065 128.752 48.5899 129.621C48.14 130.443 48.849 131.235 49.516 131.629ZM48.9908 130.495C48.5254 128.916 50.364 129.541 50.8516 129.883C51.165 130.102 51.4577 130.364 51.7379 130.624C52.3249 131.169 52.8235 131.787 53.3507 132.385C52.7355 132.202 52.1102 132.074 51.4886 131.914C50.7481 131.724 49.2472 131.365 48.9908 130.495Z" fill="#263238"/>
</g>
</g>
</g>
<g id="Group_27">
<path id="Vector_58" d="M56.0699 128.909L40.4509 122.602C40.4509 122.602 59.8166 94.1276 59.9601 92.0085C60.0868 90.1309 51.5809 73.7942 51.2456 69.0331C50.8837 63.895 53.358 59.9181 56.0766 57.4502L72.1895 64.2996C72.1895 64.2996 70.489 67.0201 67.8101 68.5345C67.8101 68.5345 76.073 87.418 75.6043 93.2241C75.1332 99.0618 56.0699 128.909 56.0699 128.909Z" fill="#37474F"/>
<g id="Group_28">
<path id="Vector_59" d="M56.7637 125.938C54.5051 124.967 55.167 125.214 52.8973 124.268C51.7868 123.805 44.4859 120.77 43.3744 120.52C43.3499 120.515 43.3341 120.553 43.3556 120.566C44.3273 121.161 51.6797 124.069 52.7989 124.51C55.086 125.412 54.4392 125.128 56.7365 126.005C56.7798 126.021 56.806 125.956 56.7637 125.938Z" fill="#263238"/>
<g id="Group_29">
<path id="Vector_60" d="M70.4625 68.1886C68.7839 68.5494 67.1371 69.1425 65.5552 69.7799C65.4931 69.8051 65.5223 69.8971 65.5888 69.8776C67.2359 69.3968 68.9112 68.9476 70.528 68.3794C70.655 68.3347 70.5912 68.1607 70.4625 68.1886Z" fill="#263238"/>
<path id="Vector_61" d="M68.5511 67.5256C68.3922 67.8025 68.2574 68.0941 68.1371 68.3888C68.0441 68.6176 67.9244 68.8629 67.9258 69.1125C67.9261 69.1609 67.9913 69.1727 68.0212 69.1431C68.2084 68.959 68.3078 68.6902 68.4261 68.4607C68.5632 68.1949 68.7063 67.9315 68.8357 67.6617C68.9214 67.4829 68.6489 67.3549 68.5511 67.5256Z" fill="#263238"/>
<path id="Vector_62" d="M68.7464 66.0107C68.8451 65.7628 68.9446 65.5151 69.0487 65.2695C69.1566 65.0152 69.2819 64.7645 69.37 64.5028C69.3837 64.4614 69.4493 64.4893 69.4328 64.531C69.3344 64.7793 69.2702 65.044 69.1912 65.2994C69.1119 65.5558 69.0283 65.8105 68.9436 66.0652C68.7857 66.5393 68.5925 67.0097 68.3888 67.4673C68.6523 67.4639 68.9234 67.4522 69.163 67.3329C69.4231 67.2032 69.5806 66.927 69.7087 66.6774C69.8508 66.4002 69.9815 66.1166 70.1276 65.8414C70.2893 65.537 70.468 65.2359 70.5745 64.9063C70.588 64.8646 70.6521 64.8925 70.6374 64.9342C70.3948 65.6146 70.1562 66.294 69.7789 66.9209C69.6307 67.1672 69.5104 67.4236 69.2372 67.52C68.9439 67.6235 68.623 67.6034 68.3176 67.5812C68.28 67.5916 68.2313 67.5674 68.2444 67.5217C68.3885 67.0147 68.5508 66.5006 68.7464 66.0107Z" fill="#263238"/>
</g>
<path id="Vector_63" d="M68.0618 69.1491C68.6343 70.363 69.138 71.5726 69.6732 72.7822C70.1964 73.9643 70.6862 75.1601 71.1617 76.3617C72.1226 78.7899 72.9835 81.2622 73.7385 83.7624C74.1121 84.9995 74.4562 86.2454 74.7673 87.4997C75.0791 88.7574 75.3839 90.0278 75.5132 91.3194C75.6429 92.615 75.5505 93.8962 75.1897 95.1491C74.8234 96.4202 74.3409 97.5303 73.7677 98.7194C73.4176 99.4462 73.297 99.3481 73.4666 98.9812C73.9475 97.9406 75.2068 94.7862 75.1154 92.1342C75.0714 90.8547 74.8086 89.5947 74.5197 88.3515C74.2247 87.0824 73.8917 85.8224 73.5285 84.5711C72.8128 82.1059 71.9627 79.6894 71.0881 77.2769C70.5982 75.9252 70.0724 74.5872 69.5751 73.2385C69.0741 71.8798 68.5577 70.657 68.0019 69.1733C67.9872 69.1343 68.0439 69.1114 68.0618 69.1491Z" fill="#263238"/>
<path id="Vector_64" d="M56.2025 65.1396C56.4823 65.0361 56.8704 65.2075 57.1557 65.2552C57.5216 65.3167 57.8915 65.354 58.2625 65.3668C58.628 65.3792 58.9966 65.3644 59.3605 65.3288C59.7244 65.2935 60.0957 65.2485 60.4119 65.0509C60.9448 64.7183 61.391 64.1323 61.7522 63.6276C62.149 63.0729 62.5609 62.4352 62.7975 61.7927C62.8119 61.7534 62.8687 61.7803 62.8563 61.8189C62.7387 62.1936 62.6513 62.5712 62.5018 62.9371C62.361 63.2815 62.1792 63.6108 61.9864 63.928C61.6262 64.5207 61.2129 65.1534 60.5953 65.5059C59.9472 65.8758 59.1122 65.8536 58.3895 65.812C57.9715 65.7878 57.5552 65.7327 57.1453 65.6463C56.8496 65.5838 56.352 65.5364 56.1635 65.2767C56.1295 65.231 56.1474 65.1601 56.2025 65.1396Z" fill="#263238"/>
<path id="Vector_65" d="M44.9095 119.625C47.4769 115.74 49.9965 111.823 52.4708 107.877C54.9515 103.922 57.3865 99.9371 59.7876 95.9327C60.3618 94.9751 61.0254 94.0178 61.3953 92.957C61.7975 91.8039 61.569 90.6867 61.2048 89.5584C60.5369 87.489 59.7049 85.4753 58.8068 83.496C57.906 81.5109 56.9363 79.5584 55.982 77.5988C55.0359 75.6551 54.0289 73.7049 53.3112 71.6624C52.6257 69.7112 52.3647 67.6878 52.8908 65.6641C53.413 63.6562 54.5423 61.8532 55.7216 60.1705C56.0328 59.7266 56.3496 59.2868 56.6618 58.8436C56.6856 58.81 56.7367 58.8507 56.7118 58.8843C55.4122 60.6385 54.1448 62.4953 53.3827 64.555C53.0061 65.5727 52.7622 66.6442 52.7383 67.7315C52.7138 68.8346 52.9211 69.9289 53.246 70.9796C53.878 73.0225 54.8756 74.9569 55.805 76.8761C56.7552 78.838 57.7309 80.7881 58.6472 82.7665C59.5692 84.757 60.4314 86.7777 61.14 88.8548C61.4555 89.7795 61.8073 90.7472 61.7864 91.738C61.7636 92.8233 61.2455 93.8004 60.7092 94.7153C58.3734 98.6989 55.9484 102.632 53.4936 106.544C51.0294 110.47 48.5165 114.365 45.9645 118.234C45.6426 118.722 45.3201 119.21 44.9972 119.697C44.9572 119.756 44.8698 119.685 44.9095 119.625Z" fill="#263238"/>
</g>
</g>
</g>
</g>
<g id="Group_30">
<g id="Group_31">
<path id="Vector_66" d="M73.0842 46.1891C74.5384 49.3814 81.8851 53.7803 85.3261 54.2531C87.8017 54.5931 95.3184 54.7101 97.8962 54.3166C100.915 53.8556 98.6085 45.7049 96.8236 45.9136C91.9184 46.4871 87.753 47.1255 86.4436 47.1255C84.8449 47.1255 76.1916 44.3482 75.149 43.9574C72.597 43.0008 72.2594 44.3784 73.0842 46.1891Z" fill="#EB9481"/>
<g id="Group_32">
<g id="Group_33">
<path id="Vector_67" d="M73.1294 47.0342C74.9703 49.7588 81.0913 54.2128 81.0913 54.2128L81.9407 52.3309L84.7516 46.1098C84.7516 46.1098 79.1307 44.3361 75.4317 43.5458C74.932 43.4386 74.4916 43.3745 74.1082 43.3573C71.7468 43.23 71.5418 44.6902 73.1294 47.0342Z" fill="#FFC81B"/>
</g>
<path id="Vector_68" d="M73.1294 47.0342C74.9703 49.7588 81.0913 54.2128 81.0913 54.2128L81.9407 52.3309C79.6582 49.6815 76.1349 45.666 74.1082 43.3573C71.7468 43.23 71.5418 44.6902 73.1294 47.0342Z" fill="#263238"/>
<path id="Vector_69" d="M79.9878 52.9553C80.4542 51.8119 82.5323 47.1986 83.0481 46.2306C83.084 46.1634 83.1348 46.1688 83.1062 46.2431C81.7908 49.7008 80.5476 51.8717 80.0332 52.9708C80.0204 52.9983 79.976 52.9842 79.9878 52.9553Z" fill="#263238"/>
</g>
<g id="Group_34">
<path id="Vector_70" d="M95.9233 46.0026C98.909 45.6108 102.602 44.9411 105.729 46.2687C106.343 46.5291 106.565 46.9864 106.565 46.9864C107.977 47.5566 108.132 48.3946 108.132 48.3946C109.285 49.3283 109.325 50.2073 109.325 50.2073C109.325 50.2073 110.976 50.8947 110.726 51.9615C110.45 53.1587 108.185 51.9588 106.537 52.0607C102.76 52.2935 97.4558 53.6812 96.3732 53.8566L95.9233 46.0026Z" fill="#EB9481"/>
<path id="Vector_71" d="M102.407 49.5225C103.52 49.4761 104.612 49.4015 105.726 49.506C106.947 49.6206 108.103 49.9361 109.289 50.2277C109.326 50.2368 109.342 50.1864 109.307 50.1716C107.245 49.3041 104.602 49.0763 102.404 49.4721C102.351 49.4815 102.351 49.5248 102.407 49.5225Z" fill="#263238"/>
<path id="Vector_72" d="M101.935 47.2638C103.02 47.2786 104.928 47.3172 108.12 48.4294C108.131 48.4331 108.14 48.4166 108.129 48.4109C106.153 47.4133 104.126 47.0585 101.936 47.2121C101.868 47.2168 101.863 47.2628 101.935 47.2638Z" fill="#263238"/>
<path id="Vector_73" d="M101.704 46.045C103.549 46.1408 104.7 46.4344 106.555 46.9922C106.566 46.9952 106.574 46.9781 106.563 46.9734C104.521 46.1183 103.683 46.0393 101.699 45.9815C101.631 45.9792 101.632 46.0413 101.704 46.045Z" fill="#263238"/>
<path id="Vector_74" d="M102.003 52.6299C101.523 52.855 101.638 53.1083 102.556 53.321C103.484 53.5381 107.288 53.5962 107.154 54.9248C107.022 56.2583 101.64 56.0877 100.139 55.6166C98.6357 55.1489 96.373 53.8573 96.373 53.8573C97.4267 53.6792 99.941 53.0049 102.003 52.6299Z" fill="#EB9481"/>
</g>
</g>
<g id="Group_35">
<path id="Vector_75" d="M77.0794 51.2786C77.0562 51.8525 76.9997 52.4368 76.9191 53.016C76.9268 52.9952 76.9359 52.9747 76.9436 52.9539C77.0555 52.6515 77.1644 52.3413 77.3001 52.049C77.3072 52.0336 77.3344 52.0379 77.331 52.0567C77.2719 52.3739 77.1607 52.6925 77.0397 52.9918C76.9819 53.1346 76.9231 53.2774 76.8613 53.4189C76.8196 53.6769 76.7733 53.9333 76.7212 54.1856C76.6221 54.6661 76.1681 56.71 76.065 57.0554C76.0431 57.128 75.9568 57.1115 75.9622 57.0302C75.987 56.6539 76.3677 54.5253 76.4447 54.0435C76.5925 53.1182 76.7958 52.174 77.0434 51.2698C77.0491 51.2483 77.08 51.2584 77.0794 51.2786Z" fill="#263238"/>
<g id="Group_36">
<path id="Vector_76" d="M73.5765 66.5534C72.6804 67.0154 71.5245 67.7311 66.3169 66.706C65.9913 66.6398 65.664 66.5598 65.3361 66.4624C60.4523 64.9954 54.5952 59.2525 54.2649 58.8476C54.2649 58.8476 62.0208 46.2708 71.9435 42.3174C73.1699 41.8288 75.2004 42.771 76.3243 43.9436C76.7258 44.3626 77.5967 47.4484 77.2624 49.9493C76.9247 52.4464 74.479 66.0958 73.5765 66.5534Z" fill="#FFC81B"/>
<g id="Group_37">
<g id="Group_38">
<path id="Vector_77" d="M72.8835 49.835C72.912 50.1051 72.8905 50.3682 72.8576 50.6296C72.8183 50.8903 72.7669 51.1494 72.6654 51.4014C72.6365 51.1312 72.658 50.8682 72.6913 50.6068C72.7309 50.346 72.7823 50.087 72.8835 49.835Z" fill="white"/>
</g>
<g id="Group_39">
<path id="Vector_78" d="M69.5011 58.3994C69.5297 58.6696 69.5082 58.9326 69.4753 59.1944C69.4359 59.4551 69.3845 59.7142 69.2831 59.9662C69.2542 59.696 69.2757 59.4329 69.3089 59.1712C69.3489 58.9105 69.4 58.6514 69.5011 58.3994Z" fill="white"/>
</g>
<g id="Group_40">
<path id="Vector_79" d="M63.7511 51.9268C63.7797 52.1969 63.7582 52.46 63.7253 52.7214C63.6859 52.9821 63.6345 53.2412 63.5331 53.4932C63.5042 53.223 63.5257 52.96 63.5589 52.6982C63.5989 52.4378 63.6503 52.1788 63.7511 51.9268Z" fill="white"/>
</g>
<g id="Group_41">
<path id="Vector_80" d="M75.0993 57.9648C75.1278 58.235 75.1063 58.4981 75.0734 58.7595C75.0341 59.0202 74.9827 59.2793 74.8812 59.5313C74.8523 59.2611 74.8738 58.998 74.9071 58.7363C74.9467 58.4759 74.9981 58.2168 75.0993 57.9648Z" fill="white"/>
</g>
<g id="Group_42">
<path id="Vector_81" d="M67.7158 50.8151C67.986 50.7865 68.2491 50.808 68.5108 50.8409C68.7715 50.8803 69.0306 50.9317 69.2826 51.0331C69.0124 51.062 68.7494 51.0405 68.4876 51.0073C68.2269 50.9676 67.9682 50.9162 67.7158 50.8151Z" fill="white"/>
</g>
<g id="Group_43">
<path id="Vector_82" d="M61.1907 57.0035C61.4608 56.975 61.7239 56.9965 61.9853 57.0294C62.2461 57.0687 62.5051 57.1201 62.7571 57.2216C62.487 57.2505 62.2239 57.229 61.9625 57.1957C61.7014 57.1561 61.4427 57.1047 61.1907 57.0035Z" fill="white"/>
</g>
<g id="Group_44">
<path id="Vector_83" d="M68.8672 63.6998C69.1373 63.6713 69.4004 63.6928 69.6618 63.7257C69.9226 63.765 70.1816 63.8164 70.4336 63.9179C70.1635 63.9468 69.9004 63.9253 69.639 63.892C69.3782 63.8524 69.1192 63.801 68.8672 63.6998Z" fill="white"/>
</g>
<g id="Group_45">
<path id="Vector_84" d="M59.1792 61.2672C59.4493 61.2387 59.7124 61.2602 59.9742 61.2931C60.2349 61.3324 60.494 61.3838 60.746 61.4853C60.4758 61.5142 60.2127 61.4927 59.951 61.4594C59.6903 61.4194 59.4312 61.368 59.1792 61.2672Z" fill="white"/>
</g>
<g id="Group_46">
<path id="Vector_85" d="M72.834 43.8151C73.1041 43.7865 73.3672 43.808 73.629 43.8409C73.8897 43.8803 74.1484 43.9317 74.4004 44.0331C74.1303 44.062 73.8672 44.0405 73.6058 44.0073C73.345 43.9673 73.086 43.9159 72.834 43.8151Z" fill="white"/>
</g>
<g id="Group_47">
<path id="Vector_86" d="M70.938 45.958C70.7669 46.169 70.566 46.34 70.3577 46.5017C70.1457 46.6582 69.9263 46.8051 69.6763 46.9112C69.847 46.6999 70.0482 46.5289 70.2565 46.3676C70.4686 46.2113 70.6883 46.0645 70.938 45.958Z" fill="white"/>
</g>
<g id="Group_48">
<path id="Vector_87" d="M60.5903 52.0488C60.4193 52.2598 60.2183 52.4309 60.01 52.5925C59.798 52.7491 59.5786 52.8959 59.3286 53.0024C59.4993 52.7911 59.7006 52.62 59.9089 52.4587C60.1212 52.3022 60.3406 52.1557 60.5903 52.0488Z" fill="white"/>
</g>
<g id="Group_49">
<path id="Vector_88" d="M73.5083 54.7998C73.3372 55.0108 73.1363 55.1818 72.928 55.3435C72.716 55.5 72.4966 55.6469 72.2466 55.753C72.4173 55.5417 72.6185 55.3707 72.8269 55.2094C73.0392 55.0535 73.2586 54.9067 73.5083 54.7998Z" fill="white"/>
</g>
<g id="Group_50">
<path id="Vector_89" d="M65.1428 60.0674C64.9718 60.2784 64.7708 60.4494 64.5625 60.611C64.3505 60.7676 64.1311 60.9144 63.8811 61.0206C64.0518 60.8093 64.2531 60.6382 64.4614 60.477C64.6734 60.3211 64.8928 60.1742 65.1428 60.0674Z" fill="white"/>
</g>
<g id="Group_51">
<path id="Vector_90" d="M76.7142 47.6006C76.5431 47.8116 76.3422 47.9826 76.1339 48.1442C75.9219 48.3008 75.7025 48.4476 75.4521 48.5538C75.6228 48.3425 75.8241 48.1714 76.0324 48.0102C76.2451 47.8539 76.4645 47.7071 76.7142 47.6006Z" fill="white"/>
</g>
<g id="Group_52">
<path id="Vector_91" d="M76.5387 53.707C76.3277 53.536 76.1567 53.335 75.995 53.1267C75.8385 52.9147 75.6916 52.6953 75.5854 52.4453C75.7968 52.616 75.9678 52.8173 76.1291 53.0256C76.285 53.2379 76.4318 53.4573 76.5387 53.707Z" fill="white"/>
</g>
<g id="Group_53">
<path id="Vector_92" d="M57.8929 57.9121C57.6819 57.741 57.5109 57.5401 57.3493 57.3318C57.1927 57.1198 57.0459 56.9004 56.9397 56.6504C57.151 56.8211 57.3221 57.0223 57.4833 57.2307C57.6396 57.4427 57.7864 57.6621 57.8929 57.9121Z" fill="white"/>
</g>
<g id="Group_54">
<path id="Vector_93" d="M74.2724 62.9179C74.0614 62.7469 73.8904 62.546 73.7288 62.3377C73.5722 62.1256 73.4254 61.9062 73.3188 61.6562C73.5302 61.8269 73.7012 62.0282 73.8625 62.2365C74.0191 62.4485 74.1656 62.6683 74.2724 62.9179Z" fill="white"/>
</g>
<g id="Group_55">
<path id="Vector_94" d="M66.0636 48.6543C65.8526 48.4832 65.6816 48.2823 65.5199 48.074C65.3634 47.862 65.2165 47.6426 65.1104 47.3926C65.3217 47.5633 65.4927 47.7645 65.654 47.9728C65.8102 48.1849 65.9571 48.4043 66.0636 48.6543Z" fill="white"/>
</g>
<g id="Group_56">
<path id="Vector_95" d="M66.2091 65.7656C65.9981 65.5946 65.8271 65.3936 65.6654 65.1853C65.5089 64.9733 65.362 64.7539 65.2559 64.5039C65.4672 64.6746 65.6382 64.8759 65.7995 65.0842C65.9554 65.2962 66.1022 65.5156 66.2091 65.7656Z" fill="white"/>
</g>
<g id="Group_57">
<path id="Vector_96" d="M67.6041 55.6718C67.3931 55.5008 67.2221 55.2999 67.0605 55.0916C66.9039 54.8795 66.7571 54.6601 66.6509 54.4102C66.8622 54.5808 67.0332 54.7821 67.1945 54.9904C67.3508 55.2024 67.4976 55.4218 67.6041 55.6718Z" fill="white"/>
</g>
</g>
</g>
</g>
<g id="Group_58">
<g id="Group_59">
<g id="Group_60">
<path id="Vector_97" d="M74.5002 47.2916C73.2358 47.0564 72.044 44.4392 71.8942 42.6786C71.8844 42.558 72.4862 41.5994 73.1619 40.3999C73.5691 39.6704 74.0056 38.8485 74.3497 38.07C74.4195 37.9098 74.8338 38.444 74.8338 38.444L75.734 39.1325L78.7092 41.4139C78.7092 41.4139 77.5081 42.8342 76.9167 44.1953C76.8686 44.3096 76.833 44.4201 76.8092 44.5296C76.8045 44.5451 76.8008 44.5646 76.793 44.5857C76.6234 45.2366 75.7222 47.518 74.5002 47.2916Z" fill="#EB9481"/>
</g>
<path id="Vector_98" d="M76.8088 44.5298C76.8041 44.5453 76.8004 44.5647 76.7927 44.5859C76.63 44.5402 76.4597 44.4754 76.2789 44.3907C73.0227 42.8646 74.4591 38.502 74.4591 38.502L75.7339 39.1326L78.7092 41.4141C78.7092 41.4141 77.508 42.8343 76.9166 44.1955C76.8683 44.3097 76.833 44.4203 76.8088 44.5298Z" fill="#263238"/>
</g>
<g id="Group_61">
<path id="Vector_99" d="M82.1245 32.1152C82.1245 32.1152 83.612 33.0601 83.6217 34.7394C83.6315 36.4191 82.9625 38.0621 82.8073 38.1209C82.652 38.1797 82.1245 32.1152 82.1245 32.1152Z" fill="#263238"/>
<g id="Group_62">
<path id="Vector_100" d="M74.7408 32.9866C73.8463 34.7523 73.8914 40.3117 75.0086 41.7444C76.6277 43.8212 79.7472 44.5369 81.6298 42.4836C83.4549 40.4932 83.2678 33.249 81.9765 31.899C80.0748 29.9105 76.0622 30.3786 74.7408 32.9866Z" fill="#EB9481"/>
</g>
<g id="Group_63">
<g id="Group_64">
<path id="Vector_101" d="M79.4852 37.4411C79.4818 37.4266 79.4559 37.4596 79.457 37.4753C79.4778 37.854 79.4378 38.2912 79.0978 38.4249C79.0874 38.4289 79.0887 38.4481 79.1015 38.4461C79.5181 38.3772 79.5655 37.7962 79.4852 37.4411Z" fill="#263238"/>
<path id="Vector_102" d="M79.1372 37.0534C78.5267 37.0211 78.5076 38.2445 79.073 38.2744C79.6298 38.3036 79.6489 37.0802 79.1372 37.0534Z" fill="#263238"/>
</g>
<g id="Group_65">
<path id="Vector_103" d="M81.5578 37.4274C81.5608 37.413 81.587 37.4459 81.5864 37.4613C81.5682 37.84 81.6116 38.2768 81.9523 38.4082C81.963 38.4122 81.9614 38.4314 81.9489 38.4294C81.5316 38.3635 81.4799 37.7832 81.5578 37.4274Z" fill="#263238"/>
<path id="Vector_104" d="M81.9024 37.0369C82.5126 37.0003 82.5408 38.2234 81.9757 38.2573C81.4193 38.2909 81.3907 37.0675 81.9024 37.0369Z" fill="#263238"/>
</g>
<path id="Vector_105" d="M78.7541 36.1222C78.9214 36.0829 79.0692 36.0188 79.2305 35.963C79.4126 35.8998 79.5642 35.8682 79.6854 35.708C79.7503 35.6219 79.7264 35.4654 79.6488 35.3941C79.4677 35.2288 79.2258 35.2507 79.0034 35.3179C78.7621 35.3908 78.5948 35.5084 78.454 35.7167C78.3169 35.9186 78.5333 36.174 78.7541 36.1222Z" fill="#263238"/>
<path id="Vector_106" d="M82.3266 36.6645C82.1575 36.6342 82.0063 36.5781 81.8424 36.5307C81.6572 36.4773 81.504 36.4538 81.3747 36.2999C81.3051 36.2172 81.3209 36.0597 81.3945 35.9847C81.5662 35.81 81.8094 35.8191 82.0349 35.8742C82.2798 35.934 82.4532 36.0429 82.6048 36.2434C82.7519 36.4377 82.5497 36.7044 82.3266 36.6645Z" fill="#263238"/>
<path id="Vector_107" d="M78.6222 41.0318C78.7116 41.1218 78.8003 41.2455 78.9374 41.2593C79.0691 41.2724 79.2247 41.2152 79.3463 41.1702C79.3584 41.1659 79.3702 41.1786 79.3625 41.19C79.2617 41.3339 79.0533 41.4215 78.8783 41.3883C78.7073 41.3557 78.6249 41.2062 78.5856 41.0486C78.5802 41.0264 78.6091 41.0187 78.6222 41.0318Z" fill="#263238"/>
<g id="Group_66">
<path id="Vector_108" d="M80.8225 39.4113C80.8225 39.4113 80.8386 39.9785 80.81 40.2419C80.8073 40.2665 80.0641 40.121 79.2631 40.2974C79.1431 40.3239 79.1549 40.2261 79.2933 40.1623C79.5705 40.0343 79.9226 39.9143 80.6081 39.9879C80.6346 39.917 80.5671 39.1153 80.6091 39.1167C80.7546 39.12 81.0278 39.249 81.1927 39.3176C81.1934 38.1352 81.0046 36.9626 81.023 35.7852C81.0244 35.7432 81.0855 35.7372 81.0936 35.7758C81.3785 36.9911 81.4074 38.3516 81.4383 39.5726C81.4441 39.7248 80.9233 39.4678 80.8225 39.4113Z" fill="#263238"/>
</g>
<g id="Group_67">
<path id="Vector_109" d="M80.0673 40.0406C80.0673 40.0406 79.8032 40.7052 79.3617 40.8836C78.8537 41.0892 78.6797 40.6293 79.1981 40.223C79.4699 40.01 80.0673 40.0406 80.0673 40.0406Z" fill="#263238"/>
<path id="Vector_110" d="M79.5378 40.7802C79.4807 40.8239 79.4236 40.8608 79.3597 40.8844C78.8927 41.0725 78.7079 40.6996 79.0842 40.3232C79.3399 40.3434 79.6184 40.4375 79.5378 40.7802Z" fill="#FF99BA"/>
</g>
</g>
<g id="Group_68">
<path id="Vector_111" d="M74.4838 37.743C75.098 37.9315 75.805 36.0838 76.0049 35.3735C76.1809 34.7475 76.3842 32.7614 76.4141 32.626C76.444 32.4906 79.0927 34.3833 80.6413 33.9307C82.19 33.4781 83.2248 32.0884 83.2463 31.4396C83.2675 30.7911 81.3449 29.1444 79.6811 29.0601C78.0172 28.9757 75.765 31.0905 75.765 31.0905C75.765 31.0905 76.53 30.1769 76.5042 30.102C76.4783 30.0271 75.4031 30.4565 75.2055 31.2222C75.2055 31.2222 75.4182 30.2609 75.3369 30.2431C75.2556 30.2253 74.4203 31.0485 74.6088 31.6725C74.6088 31.6725 73.6425 32.5095 73.5531 33.4271C73.4634 34.345 73.7621 37.5216 74.4838 37.743Z" fill="#263238"/>
<path id="Vector_112" d="M81.7419 33.6071C81.2712 33.8238 80.7995 34.0621 80.279 34.1306C79.7165 34.2049 79.1329 34.0637 78.6094 33.8628C78.0738 33.6578 77.5873 33.3601 77.1451 32.9963C76.7577 32.6774 76.4143 32.2927 76.0007 32.0088C75.8972 31.9379 75.7773 32.0867 75.8411 32.1821C76.4691 33.1243 77.5802 33.9109 78.6511 34.2505C79.7777 34.6077 80.8368 34.3564 81.748 33.6195C81.7534 33.6148 81.7497 33.6034 81.7419 33.6071Z" fill="#263238"/>
</g>
<g id="Group_69">
<path id="Vector_113" d="M75.1265 37.5785C75.1265 37.5785 74.1729 35.6425 73.3128 35.9563C72.4526 36.2701 72.9821 38.9453 73.8598 39.4352C74.7377 39.9251 75.2068 39.1214 75.2068 39.1214L75.1265 37.5785Z" fill="#EB9481"/>
<path id="Vector_114" d="M73.4839 36.7192C73.4692 36.7155 73.4631 36.736 73.4752 36.7434C74.0874 37.1083 74.3381 37.7665 74.4822 38.4314C74.3253 38.16 74.081 37.9869 73.7218 38.1684C73.703 38.1778 73.7151 38.207 73.7343 38.206C74.0105 38.1899 74.1963 38.2658 74.3441 38.5077C74.4486 38.6791 74.5067 38.8844 74.5712 39.0735C74.5927 39.1367 74.7029 39.1216 74.6912 39.051C74.6902 39.0457 74.6892 39.0403 74.6882 39.0349C74.8326 38.2046 74.3649 36.9403 73.4839 36.7192Z" fill="#263238"/>
</g>
</g>
</g>
<g id="Group_70">
<g id="Group_71">
<path id="Vector_115" d="M68.8259 46.2197C68.1691 50.0259 72.2787 62.8517 74.9247 65.2474C78.8596 68.81 86.135 71.1526 88.7712 71.9146C89.92 72.2469 93.0989 64.1617 91.9367 63.6292C89.4469 62.4888 81.7122 60.0763 80.9841 59.4567C80.256 58.8371 75.8114 52.4424 73.8354 48.7545C71.1847 43.8062 69.1582 44.2944 68.8259 46.2197Z" fill="#EB9481"/>
<g id="Group_72">
<path id="Vector_116" d="M89.9792 62.918C89.9792 62.918 93.4101 63.7922 95.6267 64.4696C96.8635 64.8473 98.9259 65.6843 99.7074 66.3774C100.876 67.4143 105.104 72.497 103.893 73.5487C102.798 74.5006 99.7205 69.6726 99.7205 69.6726C99.7205 69.6726 103.256 74.2697 101.726 75.1732C100.197 76.0767 97.4451 70.1594 97.4451 70.1594C97.4451 70.1594 100.972 74.9642 99.2471 75.6467C97.9434 76.1621 95.1496 70.9433 95.1496 70.9433C95.1496 70.9433 98.1524 75.0943 96.8346 75.6823C95.3784 76.3321 92.4972 71.6765 92.4972 71.6765C88.8959 72.6069 86.8007 71.577 85.3972 70.6668C85.0575 70.4457 89.9792 62.918 89.9792 62.918Z" fill="#EB9481"/>
<g id="Group_73">
<path id="Vector_117" d="M98.5993 68.0042C99.0341 68.529 99.478 69.0576 99.8647 69.6194C100.251 70.1811 100.619 70.757 100.952 71.3524C101.767 72.8127 102.05 73.8546 102.026 73.7921C101.447 72.3151 100.094 70.2823 99.7071 69.7202C99.3211 69.1594 98.9636 68.5794 98.5778 68.018C98.5678 68.0039 98.5889 67.9918 98.5993 68.0042Z" fill="#263238"/>
<path id="Vector_118" d="M96.545 69.3636C97.2902 69.9542 98.8536 72.154 99.4568 73.6277C99.482 73.6896 99.4487 73.6845 99.4121 73.6284C98.9397 72.9003 97.0322 70.0769 96.5275 69.375C96.5198 69.3639 96.5349 69.3555 96.545 69.3636Z" fill="#263238"/>
<path id="Vector_119" d="M94.5725 70.2136C95.4354 71.0677 96.1598 72.2337 96.7296 73.5814C96.7555 73.6422 96.7068 73.6328 96.6712 73.5753C95.9753 72.4423 95.4374 71.5486 94.5369 70.2435C94.5228 70.223 94.5523 70.1938 94.5725 70.2136Z" fill="#263238"/>
</g>
</g>
</g>
<g id="Group_74">
<path id="Vector_120" d="M72.5656 46.4993C69.4976 42.1602 67.6644 43.7686 68.2796 48.4784C68.8548 52.883 70.3988 58.1303 70.3988 58.1303L78.1405 54.3805C78.1405 54.3805 74.5289 49.2764 72.5656 46.4993Z" fill="#FFC81B"/>
<g id="Group_75">
<g id="Group_76">
<path id="Vector_121" d="M74.4405 48.2061C74.55 48.4547 74.6102 48.7117 74.6582 48.9708C74.7002 49.2312 74.7305 49.4933 74.7106 49.7644C74.6008 49.5158 74.5406 49.2587 74.4929 48.9997C74.4512 48.739 74.4213 48.4769 74.4405 48.2061Z" fill="white"/>
</g>
<g id="Group_77">
<path id="Vector_122" d="M69.8599 50.8438C70.1085 50.7342 70.3655 50.6744 70.6246 50.626C70.885 50.584 71.1471 50.5538 71.4182 50.5736C71.1696 50.6835 70.9126 50.7436 70.6535 50.7913C70.3931 50.833 70.1307 50.8629 69.8599 50.8438Z" fill="white"/>
</g>
<g id="Group_78">
<path id="Vector_123" d="M70.0593 44.0967C69.9609 44.35 69.8218 44.5741 69.6726 44.7915C69.5184 45.0052 69.3541 45.2122 69.1484 45.3896C69.2465 45.1363 69.386 44.9118 69.5352 44.6948C69.6897 44.4811 69.854 44.2744 70.0593 44.0967Z" fill="white"/>
</g>
<g id="Group_79">
<path id="Vector_124" d="M76.5917 52.8701C76.4933 53.1231 76.3542 53.3476 76.205 53.565C76.0508 53.7787 75.8868 53.9856 75.6812 54.163C75.7793 53.9097 75.9184 53.6853 76.0679 53.4682C76.2224 53.2548 76.3868 53.0479 76.5917 52.8701Z" fill="white"/>
</g>
<g id="Group_80">
<path id="Vector_125" d="M71.2353 55.5024C70.982 55.4039 70.7579 55.2648 70.5405 55.1156C70.3268 54.9614 70.1198 54.7971 69.9424 54.5918C70.1957 54.6899 70.4198 54.829 70.6372 54.9785C70.8509 55.1328 71.0576 55.2971 71.2353 55.5024Z" fill="white"/>
</g>
</g>
<path id="Vector_126" d="M73.5948 47.8054C74.0067 48.3723 74.4337 48.928 74.8591 49.4848C74.7513 49.2032 74.6579 48.9186 74.5745 48.628C74.5708 48.6145 74.59 48.6088 74.595 48.6216C74.681 48.8444 74.7765 49.0641 74.8588 49.2882C74.8984 49.3961 74.9388 49.5032 74.9801 49.6104C74.9892 49.6336 74.9982 49.6565 75.0073 49.6793C75.3383 50.1138 75.6679 50.5492 75.9864 50.9924C76.3664 51.5216 76.7333 52.0599 77.1019 52.5971C77.4826 53.1522 77.8438 53.803 78.246 54.3427C78.2809 54.3894 77.5609 54.6803 77.4937 54.7176C77.4248 54.7559 77.3781 54.6891 77.4514 54.6669C77.5189 54.6464 78.0891 54.296 78.0961 54.2889C77.7279 53.7473 77.2998 53.2463 76.9141 52.7168C76.5304 52.1896 76.145 51.6637 75.7727 51.1285C75.0167 50.0412 74.3225 48.9116 73.5722 47.8196C73.5625 47.8058 73.5847 47.7917 73.5948 47.8054Z" fill="#263238"/>
<path id="Vector_127" d="M68.4703 51.5942C68.5879 51.8233 68.7146 52.0502 68.8188 52.2857C68.8618 52.3831 68.9041 52.4806 68.9471 52.578C68.7707 51.7393 68.5977 50.9 68.426 50.06C68.424 50.0503 68.4387 50.0452 68.4414 50.0553C68.7962 51.4151 69.1548 52.7736 69.484 54.1397C69.7982 55.4421 70.1775 56.7605 70.3573 58.0894C70.4645 58.0541 71.0669 57.8048 71.0844 57.8438C71.1019 57.8831 70.2968 58.2621 70.2861 58.2305C69.8479 56.9319 69.5764 55.4569 69.2784 54.1202C69.1944 53.7439 69.1161 53.3666 69.0358 52.9893C68.9485 52.7621 68.8426 52.5434 68.7395 52.3226C68.6303 52.0891 68.5422 51.8445 68.4465 51.6053C68.4408 51.5915 68.4633 51.5808 68.4703 51.5942Z" fill="#263238"/>
<path id="Vector_128" d="M70.5213 56.8357C71.5969 56.2292 76.0905 53.903 77.0958 53.4646C77.1654 53.434 77.202 53.4699 77.1335 53.5106C73.9553 55.4043 71.6328 56.3337 70.5469 56.8763C70.52 56.8898 70.4941 56.8511 70.5213 56.8357Z" fill="#263238"/>
</g>
</g>
</g>
</g>
</g>
<g id="Folder">
<g id="Group_81">
<g id="Group_82">
<g id="Group_83">
<path id="Vector_129" d="M193.643 145.17H91.2705L106.073 61.2197H208.445L193.643 145.17Z" fill="#FFC81B"/>
<path id="Vector_130" d="M141.11 52.5254H107.606L106.073 61.2194H141.928L141.11 52.5254Z" fill="#FFC81B"/>
</g>
<g id="Group_84" opacity="0.1">
<path id="Vector_131" d="M193.643 145.17H91.2705L106.073 61.2197H208.445L193.643 145.17Z" fill="black"/>
<path id="Vector_132" d="M141.11 52.5254H107.606L106.073 61.2194H141.928L141.11 52.5254Z" fill="black"/>
</g>
</g>
<g id="Group_85">
<g id="Group_86">
<path id="Vector_133" d="M103.991 56.0723C103.859 55.5851 103.829 55.0976 103.823 54.6104C103.828 54.1228 103.858 53.6356 103.991 53.1484C104.124 53.6356 104.154 54.1232 104.159 54.6104C104.154 55.0979 104.124 55.5851 103.991 56.0723Z" fill="#263238"/>
</g>
<g id="Group_87">
<path id="Vector_134" d="M101.014 56.9335C100.655 56.5776 100.386 56.1704 100.137 55.7514C99.8978 55.327 99.6801 54.8899 99.5518 54.4014C99.9109 54.7569 100.18 55.1641 100.428 55.5834C100.667 56.0081 100.885 56.4453 101.014 56.9335Z" fill="#263238"/>
</g>
<g id="Group_88">
<path id="Vector_135" d="M98.8661 59.168C98.3779 59.039 97.9407 58.8212 97.516 58.5823C97.0964 58.3344 96.6891 58.0649 96.334 57.7061C96.8225 57.8344 97.2597 58.0521 97.684 58.2917C98.103 58.5403 98.5102 58.8095 98.8661 59.168Z" fill="#263238"/>
</g>
<g id="Group_89">
<path id="Vector_136" d="M98.1231 62.1768C97.6359 62.3092 97.1484 62.3391 96.6612 62.3448C96.174 62.3397 95.6864 62.3102 95.1992 62.1768C95.6864 62.0437 96.174 62.0138 96.6612 62.0088C97.1484 62.0145 97.6356 62.0444 98.1231 62.1768Z" fill="#263238"/>
</g>
<g id="Group_90">
<path id="Vector_137" d="M98.9838 65.1533C98.6279 65.5118 98.2207 65.7813 97.8017 66.0296C97.3773 66.2692 96.9402 66.4869 96.4517 66.6153C96.8071 66.2564 97.2144 65.9869 97.6337 65.739C98.0584 65.5001 98.4956 65.282 98.9838 65.1533Z" fill="#263238"/>
</g>
<g id="Group_91">
<path id="Vector_138" d="M101.218 67.3018C101.089 67.79 100.872 68.2271 100.633 68.6518C100.385 69.0715 100.115 69.4787 99.7563 69.8339C99.8847 69.3453 100.102 68.9082 100.342 68.4838C100.59 68.0648 100.86 67.6576 101.218 67.3018Z" fill="#263238"/>
</g>
<g id="Group_92">
<path id="Vector_139" d="M104.227 68.0439C104.359 68.5315 104.389 69.0187 104.395 69.5059C104.39 69.9931 104.36 70.4806 104.227 70.9678C104.094 70.4806 104.064 69.9931 104.059 69.5059C104.065 69.0187 104.095 68.5315 104.227 68.0439Z" fill="#263238"/>
</g>
<g id="Group_93">
<path id="Vector_140" d="M107.204 67.1836C107.563 67.5394 107.832 67.9466 108.08 68.3656C108.32 68.79 108.538 69.2271 108.666 69.7157C108.307 69.3602 108.038 68.953 107.79 68.5336C107.551 68.1086 107.333 67.6718 107.204 67.1836Z" fill="#263238"/>
</g>
<g id="Group_94">
<path id="Vector_141" d="M109.352 64.9492C109.84 65.0782 110.277 65.296 110.702 65.5349C111.122 65.7828 111.529 66.0523 111.884 66.4112C111.396 66.2828 110.958 66.0651 110.534 65.8255C110.115 65.5772 109.708 65.3077 109.352 64.9492Z" fill="#263238"/>
</g>
<g id="Group_95">
<path id="Vector_142" d="M110.095 61.9405C110.582 61.8081 111.07 61.7782 111.557 61.7725C112.044 61.7775 112.532 61.8071 113.019 61.9405C112.532 62.0735 112.044 62.1034 111.557 62.1085C111.07 62.1027 110.582 62.0732 110.095 61.9405Z" fill="#263238"/>
</g>
<g id="Group_96">
<path id="Vector_143" d="M109.234 58.9629C109.59 58.6044 109.997 58.3349 110.416 58.0866C110.84 57.8474 111.277 57.6293 111.766 57.501C111.41 57.8598 111.003 58.1293 110.584 58.3773C110.159 58.6162 109.722 58.8339 109.234 58.9629Z" fill="#263238"/>
</g>
<g id="Group_97">
<path id="Vector_144" d="M107 56.8153C107.129 56.3271 107.347 55.89 107.586 55.4653C107.834 55.0456 108.103 54.6384 108.462 54.2832C108.334 54.7717 108.116 55.2089 107.876 55.6333C107.628 56.0522 107.358 56.4595 107 56.8153Z" fill="#263238"/>
</g>
</g>
<path id="Vector_145" d="M193.492 145.169H90.8999L76.334 64.2666H178.927L193.492 145.169Z" fill="#FFC81B"/>
<g id="Group_98">
<path id="Vector_146" d="M111.884 113.724C114.239 113.724 116.148 111.815 116.148 109.459C116.148 107.104 114.239 105.195 111.884 105.195C109.529 105.195 107.62 107.104 107.62 109.459C107.62 111.815 109.529 113.724 111.884 113.724Z" fill="#263238"/>
<path id="Vector_147" d="M145.593 113.724C147.948 113.724 149.857 111.815 149.857 109.459C149.857 107.104 147.948 105.195 145.593 105.195C143.238 105.195 141.329 107.104 141.329 109.459C141.329 111.815 143.238 113.724 145.593 113.724Z" fill="#263238"/>
<path id="Vector_148" d="M134.864 114.404L134.63 113.958C134.608 113.918 132.406 109.846 127.973 109.846C123.931 109.846 122.945 113.68 122.905 113.843L122.786 114.331L121.808 114.095L121.926 113.606C121.937 113.558 123.127 108.838 127.973 108.838C133.026 108.838 135.423 113.3 135.523 113.49L135.757 113.936L134.864 114.404Z" fill="#263238"/>
</g>
</g>
</g>
<g id="Fly">
<g id="Group_99">
<g id="Group_100">
<g id="Group_101">
<path id="Vector_149" d="M186.684 108.97C186.903 108.923 187.121 108.872 187.338 108.816" stroke="#263238" stroke-miterlimit="10"/>
<path id="Vector_150" d="M188.628 108.434C193.768 106.698 198.072 102.655 198.477 97.9317C199.369 87.5157 186.684 81.7621 187.994 69.7259C189.244 58.2444 201.287 57.4253 206.115 59.0122C211.447 60.7651 209.62 65.8901 204.792 65.2289C196.423 64.0824 191.162 54.9832 195.137 44.6613C198.107 36.9498 205.51 34.0413 208.518 33.1543" stroke="#263238" stroke-miterlimit="10" stroke-dasharray="4 4"/>
<path id="Vector_151" d="M209.165 32.9751C209.581 32.8679 209.818 32.8232 209.818 32.8232" stroke="#263238" stroke-miterlimit="10"/>
</g>
</g>
<g id="Group_102">
<path id="Vector_152" d="M215.148 30.9673C214.29 28.3116 208.551 29.2658 209.672 32.7353C210.792 36.2052 216.005 33.6231 215.148 30.9673Z" fill="#263238"/>
<g id="Group_103">
<path id="Vector_153" d="M206.55 29.8963C206.593 28.7317 208.213 27.8356 210.504 28.2488C212.794 28.6625 214.951 30.205 214.951 30.205C214.951 30.205 212.686 31.5904 210.372 31.8346C208.057 32.0793 206.507 31.0665 206.55 29.8963Z" fill="#EBEBEB"/>
<g id="Group_104">
<path id="Vector_154" d="M214.951 30.2053C213.762 30.2134 212.574 30.1738 211.387 30.1375C210.2 30.0867 209.013 30.0397 207.827 29.9436C209.016 29.9349 210.204 29.9752 211.391 30.0115C212.579 30.0625 213.766 30.1099 214.951 30.2053Z" fill="#263238"/>
<path id="Vector_155" d="M208.852 28.8652C209.196 29.0191 209.514 29.2143 209.835 29.4059C210.147 29.6101 210.462 29.8111 210.75 30.0533C210.406 29.8998 210.088 29.7046 209.768 29.5124C209.455 29.3084 209.141 29.1075 208.852 28.8652Z" fill="#263238"/>
<path id="Vector_156" d="M211.966 30.0957C211.665 30.3514 211.337 30.5661 211.012 30.7842C210.679 30.9898 210.348 31.1991 209.99 31.3668C210.291 31.1111 210.619 30.8961 210.944 30.6783C211.277 30.4727 211.608 30.264 211.966 30.0957Z" fill="#263238"/>
<path id="Vector_157" d="M212.311 29.4395C212.488 29.5157 212.636 29.6296 212.785 29.7408C212.925 29.8632 213.068 29.9824 213.18 30.14C213.002 30.0641 212.855 29.9498 212.706 29.8386C212.566 29.716 212.423 29.5964 212.311 29.4395Z" fill="#263238"/>
</g>
</g>
<g id="Group_105">
<path id="Vector_158" d="M208.732 36.8088C209.448 37.7285 211.287 37.5077 212.903 35.8331C214.519 34.1581 215.366 31.6455 215.366 31.6455C215.366 31.6455 212.719 31.8461 210.699 33.0016C208.678 34.1568 208.013 35.8848 208.732 36.8088Z" fill="#EBEBEB"/>
<g id="Group_106">
<path id="Vector_159" d="M215.366 31.6455C214.397 32.3343 213.457 33.0611 212.515 33.7852C211.582 34.5207 210.646 35.2531 209.741 36.0239C210.71 35.3355 211.65 34.6084 212.592 33.8843C213.525 33.1488 214.46 32.4163 215.366 31.6455Z" fill="#263238"/>
<path id="Vector_160" d="M211.203 36.2987C211.391 35.9725 211.536 35.6284 211.683 35.2854C211.818 34.9369 211.955 34.5898 212.048 34.2246C211.859 34.5505 211.714 34.8949 211.567 35.238C211.433 35.5864 211.295 35.9335 211.203 36.2987Z" fill="#263238"/>
<path id="Vector_161" d="M213.009 33.4805C212.615 33.4493 212.224 33.4664 211.832 33.4795C211.442 33.5074 211.051 33.5316 210.663 33.6045C211.056 33.6361 211.448 33.619 211.839 33.6055C212.229 33.5773 212.62 33.5528 213.009 33.4805Z" fill="#263238"/>
<path id="Vector_162" d="M213.672 33.8106C213.771 33.6449 213.824 33.4665 213.881 33.2891C213.923 33.1077 213.969 32.9276 213.967 32.7344C213.868 32.9 213.815 33.0784 213.759 33.2558C213.717 33.4373 213.671 33.6177 213.672 33.8106Z" fill="#263238"/>
</g>
</g>
<path id="Vector_163" d="M215.147 30.9672C214.618 31.1379 214.051 30.8476 213.88 30.3184C213.709 29.7892 214 29.222 214.528 29.051C215.057 28.88 215.625 29.1706 215.796 29.6998C215.967 30.229 215.677 30.7965 215.147 30.9672Z" fill="#455A64"/>
<path id="Vector_164" d="M215.766 32.8831C215.237 33.0538 214.67 32.7635 214.499 32.2343C214.328 31.7051 214.618 31.1379 215.148 30.9669C215.677 30.7962 216.244 31.0865 216.415 31.6157C216.586 32.1446 216.295 32.7121 215.766 32.8831Z" fill="#455A64"/>
</g>
</g>
</g>
</g>
</svg>
