<svg width="168" height="168" viewBox="0 0 168 168" fill="none" xmlns="http://www.w3.org/2000/svg">
<g id="255854130_2e0d2f40-779c-4838-aeac-1b03ab9e39db 1" clip-path="url(#clip0_45_8020)">
<g id="background">
<path id="Vector" d="M168 0H0V168H168V0Z" fill="white"/>
</g>
<g id="Objects">
<g id="Group">
<path id="Vector_2" d="M148.126 99.5193H67.2547C62.4148 99.5193 59.4458 94.216 61.9759 90.09L102.412 24.1486C104.828 20.2083 110.553 20.2083 112.969 24.1486L153.405 90.09C155.935 94.216 152.966 99.5193 148.126 99.5193Z" fill="#F0641D"/>
<path id="Vector_3" d="M107.69 87.2683C111.138 87.2683 113.932 84.4736 113.932 81.0262C113.932 77.5788 111.138 74.7842 107.69 74.7842C104.243 74.7842 101.448 77.5788 101.448 81.0262C101.448 84.4736 104.243 87.2683 107.69 87.2683Z" fill="white"/>
<path id="Vector_4" d="M111.489 40.0039H103.891C102.825 40.0039 101.988 40.9203 102.085 41.9828L104.61 69.5827C104.696 70.5164 105.479 71.2311 106.416 71.2311H108.964C109.902 71.2311 110.685 70.5164 110.77 69.5827L113.295 41.9828C113.392 40.9203 112.556 40.0039 111.489 40.0039Z" fill="white"/>
<path id="Vector_5" d="M41.3789 125.916L24.4726 145.331C23.0185 147 20.534 147.294 18.732 146.008C18.0172 145.497 17.2356 144.855 16.4306 144.049C15.6249 143.243 14.9822 142.462 14.4714 141.748C13.1852 139.945 13.4794 137.461 15.1483 136.007L34.5631 119.101L41.3789 125.916Z" fill="#265060"/>
<path id="Vector_6" d="M68.0139 118.818C82.5682 118.818 94.3667 107.019 94.3667 92.4651C94.3667 77.9109 82.5682 66.1123 68.0139 66.1123C53.4597 66.1123 41.6611 77.9109 41.6611 92.4651C41.6611 107.019 53.4597 118.818 68.0139 118.818Z" fill="#E9FDFF"/>
<path id="Vector_7" d="M47.2378 109.667L40.8027 116.103L44.3745 119.674L50.8096 113.239L47.2378 109.667Z" fill="#ACBBBF"/>
<path id="Vector_8" d="M46.0262 120.644L42.9834 124.138L36.3418 117.496L39.8366 114.453C40.4654 113.906 41.4113 113.939 42.001 114.528L45.951 118.479C46.5408 119.069 46.5742 120.014 46.0262 120.644Z" fill="#C1D6D5"/>
<path id="Vector_9" d="M94.367 92.4654C94.367 94.9083 94.0348 97.274 93.4124 99.5191H67.2548C62.4149 99.5191 59.4459 94.2157 61.9758 90.0897L75.9359 67.3242C86.6191 70.6873 94.367 80.6711 94.367 92.4654Z" fill="#EDB294"/>
<path id="Vector_10" d="M95.2428 81.4106C93.7641 77.7643 91.5927 74.4942 88.7887 71.6902C85.9853 68.8862 82.7146 66.7148 79.0683 65.2367C75.5483 63.8091 71.8288 63.085 68.0139 63.085C64.1996 63.085 60.48 63.8092 56.9594 65.2367C53.3137 66.7148 50.0431 68.8862 47.2391 71.6902C44.4357 74.4943 42.2643 77.7643 40.7856 81.4106C39.3579 84.9312 38.6338 88.6501 38.6338 92.465C38.6338 96.2799 39.358 99.9988 40.7856 103.52C42.2643 107.166 44.4357 110.436 47.2391 113.24C50.0431 116.044 53.3137 118.215 56.9594 119.694C60.48 121.122 64.1996 121.845 68.0139 121.845C71.8288 121.845 75.5483 121.122 79.0683 119.694C82.7146 118.215 85.9853 116.044 88.7887 113.24C91.5927 110.436 93.7641 107.166 95.2428 103.52C96.6704 99.9988 97.3939 96.2799 97.3939 92.465C97.3939 88.6501 96.6704 84.9312 95.2428 81.4106ZM85.2174 109.668C80.6221 114.263 74.5127 116.794 68.0138 116.794C61.5155 116.794 55.4061 114.263 50.8107 109.668C46.2154 105.073 43.6848 98.9634 43.6848 92.465C43.6848 85.9667 46.2154 79.8573 50.8107 75.262C55.4061 70.6666 61.5155 68.136 68.0138 68.136C74.5128 68.136 80.6222 70.6666 85.2174 75.262C89.8121 79.8573 92.3427 85.9667 92.3427 92.465C92.3428 98.9634 89.8122 105.073 85.2174 109.668Z" fill="#2C5A68"/>
<path id="Vector_11" d="M68.014 117.939C61.2095 117.939 54.8123 115.289 50.0008 110.478C45.1894 105.666 42.5396 99.2692 42.5396 92.4647C42.5396 85.6602 45.1894 79.263 50.0008 74.4516C54.8123 69.6401 61.2095 66.9902 68.014 66.9902C74.8185 66.9902 81.2157 69.6401 86.0272 74.4516C90.8386 79.263 93.4885 85.6602 93.4885 92.4647C93.4885 99.2691 90.8386 105.666 86.0272 110.478C81.2157 115.289 74.8185 117.939 68.014 117.939ZM68.014 69.2811C61.8214 69.2811 55.9996 71.6926 51.6208 76.0714C47.2419 80.4502 44.8305 86.2721 44.8305 92.4646C44.8305 98.6571 47.2419 104.479 51.6208 108.858C55.9996 113.237 61.8214 115.648 68.014 115.648C74.2066 115.648 80.0285 113.237 84.4073 108.858C88.7861 104.479 91.1975 98.6572 91.1975 92.4646C91.1975 86.272 88.7861 80.4502 84.4073 76.0714C80.0285 71.6927 74.2066 69.2811 68.014 69.2811Z" fill="#224356"/>
</g>
</g>
</g>
<defs>
<clipPath id="clip0_45_8020">
<rect width="168" height="168" fill="white"/>
</clipPath>
</defs>
</svg>
